# xmcd
#
# Track frame offsets:
#	150
#	20750
#	34827
#	54278
#	72427
#	93363
#	109052
#	131545
#	145025
#	161299
#	184188
#	218761
#	254172
#
# Disc length: 4205 seconds
#
# Revision: 1
# Processed by: cddbd v1.5.2PL0 Copyright (c) Steve Scherf et al.
# Submitted via: audiograbber 1.83.01
#
DISCID=b8106b0d
DTITLE=Komm'MitMann!s - Soul Vol. 5
DYEAR=2006
DGENRE=Soul
TTITLE0=I Got a Woman
TTITLE1=Ain't Nothing Like the Real Thing
TTITLE2=Take Me to the River
TTITLE3=Rock Steady
TTITLE4=Georgia on My Mind
TTITLE5=Until You Come Back to Me
TTITLE6=Hallelujah, I Lover Her So
TTITLE7=Son Of a Preacher Man
TTITLE8=In the Midnight Hour
TTITLE9=Midnight Train to Georgia
TTITLE10=Papa Was a Rolling Stone
TTITLE11=Bonus
TTITLE12=Daten-CD
EXTD=
EXTT0=
EXTT1=
EXTT2=
EXTT3=
EXTT4=
EXTT5=
EXTT6=
EXTT7=
EXTT8=
EXTT9=
EXTT10=
EXTT11=
EXTT12=
PLAYORDER=
